<?xml version="1.0" standalone="no"?>
<!DOCTYPE svg PUBLIC "-//W3C//DTD SVG 20010904//EN"
 "http://www.w3.org/TR/2001/REC-SVG-20010904/DTD/svg10.dtd">
<svg version="1.0" xmlns="http://www.w3.org/2000/svg"
 width="256.000000pt" height="256.000000pt" viewBox="0 0 256.000000 256.000000"
 preserveAspectRatio="xMidYMid meet">

<g transform="translate(0.000000,256.000000) scale(0.100000,-0.100000)"
fill="#000000" stroke="none">
<path d="M522 1894 c-21 -14 -22 -23 -22 -128 l0 -112 -57 -12 c-78 -17 -143
-65 -177 -133 l-26 -53 0 -550 0 -551 24 -50 c25 -55 76 -105 134 -133 34 -16
98 -17 882 -17 777 0 848 1 881 17 54 25 96 64 127 117 l27 46 3 545 c2 396 0
557 -9 588 -23 83 -117 163 -208 178 l-41 7 0 113 c0 151 11 144 -230 144
-241 0 -230 7 -230 -146 l0 -114 -320 0 -320 0 0 114 c0 153 11 146 -230 146
-152 0 -190 -3 -208 -16z m1614 -380 c15 -11 37 -33 48 -48 20 -26 21 -43 24
-297 2 -216 0 -270 -10 -274 -8 -3 -425 -2 -928 2 l-915 8 -3 250 c-1 138 0
260 3 272 8 35 64 92 99 102 18 6 370 9 843 8 803 -2 812 -2 839 -23z m-1291
-714 c3 -5 -36 -82 -87 -172 l-93 -163 -69 -3 c-38 -2 -73 1 -77 5 -5 5 28 74
72 153 117 210 98 190 179 190 38 0 71 -4 75 -10z m399 2 c3 -5 -37 -82 -88
-173 l-93 -164 -68 -3 c-37 -2 -72 1 -77 6 -7 7 141 288 174 330 12 13 144 17
152 4z m399 1 c3 -5 -39 -84 -93 -178 l-97 -170 -64 2 c-35 2 -69 5 -76 7 -8
3 20 62 77 161 48 85 93 162 100 170 13 16 145 22 153 8z m391 -1 c3 -5 -38
-86 -91 -180 l-95 -172 -69 0 c-37 0 -71 4 -74 10 -3 5 37 86 90 180 l96 170
69 0 c38 0 71 -4 74 -8z m-341 -436 c262 -3 482 -8 488 -12 7 -4 2 -15 -13
-31 -51 -55 -12 -53 -888 -53 -728 0 -815 2 -846 16 -37 18 -79 68 -69 83 3 6
167 8 428 5 232 -2 637 -6 900 -8z"/>
</g>
</svg>
