<?xml version="1.0" standalone="no"?>
<!DOCTYPE svg PUBLIC "-//W3C//DTD SVG 20010904//EN"
 "http://www.w3.org/TR/2001/REC-SVG-20010904/DTD/svg10.dtd">
<svg version="1.0" xmlns="http://www.w3.org/2000/svg"
 width="135.000000pt" height="113.000000pt" viewBox="0 0 135.000000 113.000000"
 preserveAspectRatio="xMidYMid meet">

<g transform="translate(0.000000,113.000000) scale(0.100000,-0.100000)"
fill="#000000" stroke="none">
<path d="M252 1087 c-6 -7 -60 -244 -120 -527 -86 -405 -107 -518 -98 -528 10
-10 143 -13 645 -13 347 0 636 3 641 6 6 4 10 17 10 30 0 38 -211 1019 -222
1033 -15 18 -841 18 -856 -1z m187 -124 c-5 -38 -8 -80 -8 -95 l-1 -28 -86 0
c-76 0 -85 2 -81 18 3 9 13 52 22 95 l16 77 73 0 72 0 -7 -67z m211 -28 l0
-95 -86 0 -86 0 7 53 c3 28 9 71 12 95 l5 42 74 0 74 0 0 -95z m215 43 c3 -29
9 -72 12 -95 l5 -43 -86 0 -86 0 0 95 0 95 74 0 74 0 7 -52z m210 -25 c9 -43
19 -86 22 -95 4 -16 -4 -18 -80 -18 l-84 0 -9 95 -9 95 72 0 72 0 16 -77z
m-659 -210 c-3 -27 -8 -74 -12 -105 l-6 -58 -94 0 c-83 0 -94 2 -94 18 0 15 7
46 35 170 5 21 10 22 91 22 l86 0 -6 -47z m234 -58 l0 -105 -94 0 c-52 0 -97
3 -99 8 -5 8 11 169 18 190 3 8 30 12 90 12 l85 0 0 -105z m241 54 c4 -26 9
-71 10 -100 l4 -54 -97 -3 -98 -3 0 106 0 106 87 -3 88 -3 6 -46z m224 29 c28
-124 35 -155 35 -170 0 -16 -11 -18 -94 -18 l-94 0 -6 58 c-4 31 -9 78 -12
105 l-6 47 86 0 c81 0 86 -1 91 -22z m-730 -315 c-12 -134 -1 -123 -125 -123
l-107 0 20 100 20 100 100 0 99 0 -7 -77z m265 -23 l0 -100 -111 0 -111 0 7
93 c4 50 9 95 12 100 2 4 49 7 104 7 l99 0 0 -100z m264 83 c3 -10 8 -55 12
-100 l7 -83 -112 0 -111 0 0 100 0 100 99 0 c86 0 100 -2 105 -17z m273 -83
l20 -100 -107 0 c-124 0 -113 -11 -125 123 l-7 77 99 0 99 0 21 -100z m-832
-242 c-4 -51 -9 -96 -12 -100 -2 -5 -58 -8 -124 -8 l-121 0 7 33 c4 17 14 62
22 100 l15 67 110 0 111 0 -8 -92z m295 -8 l0 -100 -126 0 -126 0 6 48 c3 26
8 71 12 100 l6 52 114 0 114 0 0 -100z m294 50 c3 -27 9 -72 12 -100 l6 -50
-126 0 -126 0 0 100 0 100 114 0 114 0 6 -50z m289 -17 c8 -38 18 -83 22 -100
l7 -33 -121 0 c-66 0 -122 3 -124 8 -3 4 -8 49 -12 100 l-8 92 111 0 110 0 15
-67z"/>
</g>
</svg>
